<?xml version="1.0" standalone="no"?>
<!DOCTYPE svg PUBLIC "-//W3C//DTD SVG 20010904//EN"
 "http://www.w3.org/TR/2001/REC-SVG-20010904/DTD/svg10.dtd">
<svg version="1.0" xmlns="http://www.w3.org/2000/svg"
 width="500.000000pt" height="500.000000pt" viewBox="0 0 500.000000 500.000000"
 preserveAspectRatio="xMidYMid meet">

<g transform="translate(0.000000,500.000000) scale(0.100000,-0.100000)"
fill="#000000" stroke="none">
<path d="M2529 4111 c11 -15 26 -48 32 -73 20 -75 -5 -124 -127 -243 -136
-133 -154 -161 -154 -239 0 -51 5 -70 29 -107 25 -39 109 -109 132 -109 5 0
-5 21 -21 47 -32 50 -38 94 -18 140 18 42 46 73 142 158 48 43 99 98 113 122
22 38 25 52 21 113 -4 80 -33 131 -107 187 -52 41 -69 42 -42 4z"/>
<path d="M1815 3203 c-15 -14 -16 -30 -10 -112 19 -255 104 -459 249 -601 25
-24 46 -48 46 -52 0 -4 -99 -8 -221 -8 l-220 0 3 -22 c6 -45 166 -116 338
-152 61 -13 151 -16 470 -16 396 0 419 2 560 38 113 29 230 97 230 133 0 18
-9 19 -217 19 l-216 0 69 73 c68 71 70 72 139 83 82 13 90 16 173 57 118 59
197 156 209 257 8 66 -2 109 -38 163 -39 60 -95 87 -175 87 -58 0 -61 1 -75
33 l-14 32 -642 3 c-590 2 -643 1 -658 -15z m1426 -179 c38 -19 63 -75 55
-119 -14 -74 -111 -160 -212 -191 -53 -16 -52 -23 -11 86 14 36 33 105 42 153
l18 87 39 0 c21 0 53 -7 69 -16z"/>
<path d="M945 1781 l0 -251 90 1 c50 0 106 5 125 12 94 33 110 184 23 228
l-32 16 29 21 c40 30 55 85 38 136 -21 64 -51 79 -170 84 l-103 4 0 -251z
m166 159 c27 -15 26 -83 -2 -111 -35 -35 -54 -21 -57 40 -2 29 -1 60 2 67 6
17 30 18 57 4z m21 -223 c11 -17 10 -65 -2 -88 -8 -13 -21 -19 -45 -19 l-35 0
0 58 c0 32 3 62 7 66 11 11 65 -2 75 -17z"/>
<path d="M1288 2025 c-4 -4 -3 -16 3 -26 12 -23 8 -426 -5 -451 -7 -16 -2 -18
57 -18 62 0 90 11 67 25 -5 3 -10 40 -10 81 0 64 2 75 16 72 19 -3 55 -109 51
-148 -2 -24 0 -25 66 -28 37 -2 67 0 67 3 0 3 -9 18 -20 33 -11 15 -31 58 -44
96 l-25 69 29 36 c27 31 30 43 30 101 0 71 -21 119 -61 140 -25 14 -210 26
-221 15z m167 -90 c19 -18 25 -35 25 -70 0 -35 -6 -52 -25 -70 -46 -47 -55
-36 -55 70 0 106 9 117 55 70z"/>
<path d="M1645 2020 c-3 -5 -1 -19 5 -30 13 -24 10 -415 -4 -443 -8 -16 0 -17
119 -15 l127 3 4 47 c4 51 -6 67 -26 43 -8 -10 -31 -15 -66 -15 l-54 0 0 70 0
70 34 0 c19 0 38 -4 41 -10 15 -24 25 -6 25 46 0 50 -2 55 -17 48 -10 -4 -31
-8 -48 -8 l-30 -1 0 60 0 60 48 3 c27 2 55 -2 62 -8 30 -25 41 13 26 88 -2 7
-241 0 -246 -8z"/>
<path d="M2049 2023 c-1 -5 0 -20 1 -34 2 -38 -79 -400 -96 -426 -8 -12 -14
-25 -14 -28 0 -3 30 -5 68 -3 54 2 66 6 63 18 -3 8 -5 29 -5 45 -1 30 0 30 56
33 50 3 57 0 63 -18 4 -11 4 -34 0 -50 l-7 -30 66 0 c36 0 66 2 66 5 0 4 -7
19 -15 34 -21 42 -98 399 -91 426 4 16 1 25 -10 29 -23 9 -144 7 -145 -1z m95
-210 c24 -103 23 -113 -18 -113 -19 0 -37 3 -39 8 -6 10 26 172 34 172 3 0 14
-30 23 -67z"/>
<path d="M2358 2025 c-4 -4 -2 -19 3 -34 12 -33 8 -419 -5 -443 -7 -16 -2 -18
56 -18 l64 0 -4 85 c-4 80 4 115 27 115 4 0 20 -35 35 -79 39 -111 47 -121
105 -121 26 0 50 3 54 6 3 4 -3 18 -13 33 -11 14 -40 82 -66 150 l-46 124 60
88 c33 48 58 90 55 93 -8 8 -97 8 -117 0 -9 -3 -16 -16 -16 -28 0 -21 -66
-156 -76 -156 -3 0 -4 42 -3 93 l3 92 -55 3 c-30 2 -58 0 -61 -3z"/>
<path d="M2877 2023 c-10 -9 -9 -103 1 -103 4 0 16 7 26 15 11 8 32 15 48 15
l28 0 0 -194 c0 -121 -4 -197 -10 -201 -23 -14 5 -25 62 -25 l60 0 -8 28 c-5
15 -9 108 -9 207 l0 180 23 3 c13 2 35 -4 48 -13 14 -9 27 -15 29 -13 4 4 7
47 6 81 l-1 27 -148 0 c-82 0 -152 -3 -155 -7z"/>
<path d="M3236 2003 c11 -35 12 -385 1 -435 l-8 -38 66 0 c65 0 66 1 58 23
-11 29 -10 425 1 455 8 21 7 22 -59 22 l-67 0 8 -27z"/>
<path d="M3410 2015 c0 -8 5 -15 10 -15 13 0 9 -426 -4 -452 -7 -16 -2 -18 59
-18 60 0 66 2 59 18 -13 27 -18 285 -5 278 6 -4 24 -36 41 -72 16 -36 34 -62
40 -59 5 3 10 10 10 15 0 14 49 118 58 124 9 5 6 -200 -3 -267 l-5 -38 62 3
c51 2 62 6 58 18 -10 31 -11 442 0 454 15 19 2 26 -46 26 -53 0 -64 -11 -100
-99 -16 -39 -32 -71 -37 -71 -4 0 -23 35 -43 77 -19 43 -41 81 -47 85 -7 4
-33 8 -59 8 -36 0 -48 -4 -48 -15z"/>
<path d="M3846 2008 c11 -30 11 -438 0 -460 -8 -17 1 -18 118 -18 l126 0 0 57
c0 54 -1 55 -18 40 -12 -11 -36 -17 -70 -17 l-52 0 0 70 0 70 34 0 c19 0 38
-4 41 -10 15 -25 25 -5 25 50 l0 60 -24 -16 c-14 -8 -35 -14 -48 -12 -21 3
-23 8 -23 63 l0 60 49 3 c27 2 54 -2 59 -7 20 -20 27 -11 27 39 l0 50 -126 0
-126 0 8 -22z"/>
<path d="M1802 1305 c-86 -72 -12 -216 97 -189 26 7 36 14 36 29 0 17 -6 20
-38 17 -30 -3 -45 2 -63 19 -29 27 -30 49 -6 79 18 22 50 28 92 18 18 -4 26
32 8 43 -28 18 -95 10 -126 -16z"/>
<path d="M2075 1299 c-30 -27 -35 -37 -35 -74 0 -113 143 -156 201 -61 23 38
24 67 4 106 -33 64 -114 78 -170 29z m115 -34 c16 -19 15 -71 -1 -91 -29 -35
-99 -4 -99 44 0 52 69 84 100 47z"/>
<path d="M2360 1225 c0 -87 3 -105 15 -105 8 0 18 0 23 0 4 -1 9 16 12 37 5
35 8 38 40 43 50 7 47 34 -3 38 -33 3 -38 6 -35 25 2 18 10 22 43 22 34 0 40
3 43 23 3 21 0 22 -67 22 l-71 0 0 -105z"/>
<path d="M2610 1219 c0 -109 0 -110 23 -107 18 2 23 11 27 43 5 37 8 40 35 40
23 1 31 6 33 23 3 19 -1 22 -32 22 -29 0 -36 4 -36 19 0 16 8 20 38 23 30 2
38 7 40 26 3 21 0 22 -62 22 l-66 0 0 -111z"/>
<path d="M2852 1223 l3 -108 68 -3 c66 -3 67 -3 67 23 0 23 -3 25 -45 25 -38
0 -45 3 -45 20 0 17 7 20 41 20 36 0 40 2 37 22 -2 18 -10 22 -38 23 -24 0
-36 5 -38 17 -3 13 6 17 40 20 36 2 44 7 46 26 3 21 0 22 -68 22 l-71 0 3
-107z"/>
<path d="M3100 1220 l0 -110 69 0 c60 0 69 3 74 19 7 27 0 31 -50 31 -36 0
-43 3 -43 20 0 17 7 20 40 20 33 0 40 3 40 19 0 16 -8 20 -37 23 -26 2 -39 8
-41 20 -3 13 6 17 40 20 36 2 44 7 46 26 3 21 0 22 -67 22 l-71 0 0 -110z"/>
<path d="M1132 1208 c6 -16 448 -19 448 -3 0 6 -84 11 -226 13 -179 2 -225 0
-222 -10z"/>
<path d="M3417 1214 c-19 -19 24 -24 219 -24 184 0 214 2 214 15 0 13 -30 15
-213 15 -118 0 -217 -3 -220 -6z"/>
</g>
</svg>
